<svg width="18" height="28" viewBox="0 0 18 28" fill="none" xmlns="http://www.w3.org/2000/svg">
<g filter="url(#filter0_d_17137_3412)">
<path d="M12.0779 6.25974C11.6623 5.87013 11.2468 5.58442 10.8571 5.37662C10.4675 5.19481 10.026 5.09091 9.53247 5.09091C8.96104 5.09091 8.54545 5.22078 8.25974 5.45455C7.97403 5.68831 7.81818 6.07792 7.81818 6.5974C7.81818 6.96104 7.97403 7.2987 8.28571 7.53247C8.5974 7.79221 8.96104 8.02597 9.42857 8.25974C9.8961 8.49351 10.3896 8.72727 10.9091 8.98701C11.4286 9.24675 11.9221 9.53247 12.3896 9.8961C12.8571 10.2597 13.2208 10.6753 13.5325 11.1948C13.8442 11.7143 14 12.3377 14 13.0649C14 14.1818 13.6883 15.1429 13.0909 15.9481C12.4935 16.7532 11.5584 17.2727 10.3636 17.5584V20H8.1039V17.6623C7.42857 17.5844 6.7013 17.4026 5.94805 17.0909C5.19481 16.7792 4.54545 16.3896 4 15.8961L5.50649 13.5844C6.1039 14.026 6.67533 14.3636 7.19481 14.5974C7.74026 14.8312 8.28571 14.9351 8.83117 14.9351C9.48052 14.9351 9.97403 14.8052 10.2597 14.5455C10.5714 14.2857 10.7273 13.8701 10.7273 13.3247C10.7273 12.9091 10.5714 12.5714 10.2597 12.2857C9.94805 12 9.58442 11.7403 9.11688 11.4805C8.64935 11.2208 8.15584 10.961 7.63636 10.7013C7.11688 10.4416 6.62338 10.1299 6.15584 9.76623C5.68831 9.4026 5.32468 8.98701 5.01299 8.49351C4.7013 8 4.54545 7.42857 4.54545 6.72727C4.54545 5.58442 4.85714 4.62338 5.48052 3.87013C6.1039 3.11688 6.98701 2.62338 8.07792 2.41558V0H10.3377V2.36364C11.0909 2.46753 11.7403 2.7013 12.3117 3.03896C12.8831 3.37662 13.3766 3.79221 13.8442 4.28571L12.0779 6.25974Z" fill="black"/>
<path d="M12.0336 5.55937C11.7143 5.30288 11.3973 5.09803 11.0924 4.93545L11.0807 4.92917L11.0686 4.92353C10.612 4.71047 10.0982 4.59091 9.53247 4.59091C8.89038 4.59091 8.34756 4.73666 7.94312 5.06757C7.50395 5.42688 7.31818 5.98406 7.31818 6.5974C7.31818 7.10806 7.53962 7.59266 7.97492 7.92431C8.3196 8.21017 8.7145 8.46172 9.20496 8.70695C9.43505 8.82199 9.67097 8.93685 9.91019 9.05331L9.93049 9.06319C10.1774 9.18342 10.4284 9.3057 10.6855 9.43423C11.1873 9.68515 11.6498 9.95411 12.0826 10.2908C12.4993 10.6148 12.8223 10.9831 13.1037 11.4521C13.3602 11.8795 13.5 12.41 13.5 13.0649C13.5 14.0829 13.218 14.9376 12.6894 15.6501C12.1841 16.3311 11.3702 16.8037 10.2474 17.0722L9.86364 17.1639V17.5584V19.5H8.6039V17.6623V17.2167L8.16121 17.1656C7.53319 17.0932 6.85089 16.9234 6.13923 16.6289C5.57787 16.3966 5.08708 16.1224 4.66159 15.7967L5.64209 14.2921C6.10979 14.6069 6.56284 14.8613 6.98962 15.0534L6.98959 15.0534L6.99785 15.057C7.60725 15.3181 8.21989 15.4351 8.83117 15.4351C9.5155 15.4351 10.1622 15.304 10.588 14.9227C11.0462 14.5359 11.2273 13.956 11.2273 13.3247C11.2273 12.7612 11.0067 12.2922 10.5976 11.9171C10.2527 11.6009 9.85589 11.3191 9.3597 11.0434C8.88533 10.7799 8.38538 10.5168 7.85997 10.2541C7.37052 10.0094 6.90487 9.71538 6.46281 9.37156C6.04514 9.0467 5.71946 8.67575 5.43573 8.22651C5.18203 7.82482 5.04545 7.3492 5.04545 6.72727C5.04545 5.67862 5.32955 4.83678 5.86572 4.18891C6.4046 3.53776 7.17793 3.096 8.17148 2.90675L8.57792 2.82934V2.41558V0.5H9.83766V2.36364V2.7994L10.2693 2.85895C10.9581 2.95395 11.544 3.16612 12.0573 3.46942C12.4541 3.70388 12.8131 3.98104 13.1562 4.30473L12.0336 5.55937Z" stroke="black"/>
</g>
<defs>
<filter id="filter0_d_17137_3412" x="0" y="0" width="18" height="28" filterUnits="userSpaceOnUse" color-interpolation-filters="sRGB">
<feFlood flood-opacity="0" result="BackgroundImageFix"/>
<feColorMatrix in="SourceAlpha" type="matrix" values="0 0 0 0 0 0 0 0 0 0 0 0 0 0 0 0 0 0 127 0" result="hardAlpha"/>
<feOffset dy="4"/>
<feGaussianBlur stdDeviation="2"/>
<feComposite in2="hardAlpha" operator="out"/>
<feColorMatrix type="matrix" values="0 0 0 0 0 0 0 0 0 0 0 0 0 0 0 0 0 0 0.25 0"/>
<feBlend mode="normal" in2="BackgroundImageFix" result="effect1_dropShadow_17137_3412"/>
<feBlend mode="normal" in="SourceGraphic" in2="effect1_dropShadow_17137_3412" result="shape"/>
</filter>
</defs>
</svg>
